<svg width="25" height="26" viewBox="0 0 25 26" fill="none" xmlns="http://www.w3.org/2000/svg">
<path d="M3.68105 6.57822L3.62026 5.83068L3.68105 6.57822ZM6.43482 5.4824L6.90209 6.06906L6.43482 5.4824ZM19.0029 18.0505L19.5896 18.5178L19.0029 18.0505ZM17.9071 20.8043L18.6546 20.8651L17.9071 20.8043ZM2.03556 10.8158L2.56589 10.2854L2.03556 10.8158ZM13.6696 22.4498L13.1392 22.9801L13.6696 22.4498ZM21.5481 14.855L20.9615 14.3877L21.5481 14.855ZM9.63032 2.93721L9.16306 2.35056H9.16306L9.63032 2.93721ZM11.9343 24.858C12.3113 24.6865 12.478 24.2418 12.3065 23.8647C12.135 23.4877 11.6904 23.321 11.3133 23.4925L11.9343 24.858ZM6.64965 18.8289C6.82113 18.4518 6.65448 18.0071 6.27743 17.8357C5.90038 17.6642 5.4557 17.8308 5.28423 18.2079L6.64965 18.8289ZM14.1999 21.9194L2.56589 10.2854L1.50523 11.3461L13.1392 22.9801L14.1999 21.9194ZM20.9615 14.3877L18.4163 17.5832L19.5896 18.5178L22.1348 15.3223L20.9615 14.3877ZM6.90209 6.06906L10.0976 3.52386L9.16306 2.35056L5.96756 4.89575L6.90209 6.06906ZM3.74183 7.32575C4.89174 7.23225 5.99308 6.79308 6.90209 6.06906L5.96756 4.89575C5.28853 5.43659 4.46939 5.76164 3.62026 5.83068L3.74183 7.32575ZM18.4163 17.5832C17.6922 18.4922 17.2531 19.5936 17.1596 20.7435L18.6546 20.8651C18.7237 20.0159 19.0487 19.1968 19.5896 18.5178L18.4163 17.5832ZM2.56589 10.2854C1.56894 9.28848 2.21435 7.44995 3.74183 7.32575L3.62026 5.83068C0.905585 6.05142 -0.456969 9.3839 1.50523 11.3461L2.56589 10.2854ZM13.1392 22.9801C15.1014 24.9423 18.4339 23.5797 18.6546 20.8651L17.1596 20.7435C17.0354 22.271 15.1968 22.9164 14.1999 21.9194L13.1392 22.9801ZM22.1348 15.3223C25.123 11.5705 24.9086 6.2295 21.5822 2.90311L20.5216 3.96377C23.2839 6.72614 23.4962 11.2054 20.9615 14.3877L22.1348 15.3223ZM10.0976 3.52386C13.2799 0.989173 17.7592 1.2014 20.5216 3.96377L21.5822 2.90311C18.2558 -0.423285 12.9148 -0.637717 9.16306 2.35056L10.0976 3.52386ZM11.3133 23.4925C10.0987 24.0449 8.53345 23.7955 7.44008 22.7021L6.37942 23.7628C7.89769 25.281 10.1284 25.6792 11.9343 24.858L11.3133 23.4925ZM7.44008 22.7021C6.34671 21.6087 6.09725 20.0435 6.64965 18.8289L5.28423 18.2079C4.46294 20.0138 4.86115 22.2445 6.37942 23.7628L7.44008 22.7021Z" fill="#171919"/>
</svg>
