<svg width="32" height="33" viewBox="0 0 32 33" fill="none" xmlns="http://www.w3.org/2000/svg">
<path fill-rule="evenodd" clip-rule="evenodd" d="M29.3337 24.5V9.78164C29.3337 9.72197 29.3317 9.66253 29.3277 9.60342H20.0002V12.5C20.0002 14.7091 18.2093 16.5 16.0002 16.5C13.7911 16.5 12.0002 14.7091 12.0002 12.5V9.60342H2.67295C2.66899 9.66253 2.66699 9.72197 2.66699 9.78164V24.5C2.66699 27.4455 5.05481 29.8333 8.00032 29.8333H24.0003C26.9458 29.8333 29.3337 27.4455 29.3337 24.5ZM24.1279 4.33534L27.9543 7.39652H4.04631L7.87278 4.33533C8.81845 3.57879 9.99345 3.16663 11.2045 3.16663L20.7962 3.16664C22.0072 3.16664 23.1822 3.57881 24.1279 4.33534Z" fill="#00317B"/>
</svg>
